<svg width="385" height="563" xmlns="http://www.w3.org/2000/svg" xmlns:xlink="http://www.w3.org/1999/xlink">
 <title>Animated Floating Island SVG - Aj Matillano</title>
 <!-- Inline CSS for the animation -->
 <style>.floating-island {
        animation: floatAnim 6s ease-in-out infinite;
      }
      .floating-balloon {
        animation: floatAnim2 5s ease-in-out infinite;
      }

      @keyframes floatAnim {
        0% {
          transform: translate(281px,123px);
        }
        50% {
          transform: translate(281px,138px);
        }
        100% {
          transform: translate(281px,123px);
        }
      }
      @keyframes floatAnim2 {
        0% {
          transform: translate(295px,82px);
        }
        50% {
          transform: translate(295px,87px);
        }
        100% {
          transform: translate(295px,82px);
        }
      }</style>
 <!-- Inline CSS end -->
 <defs>
  <path id="path-2" d="m39.80551,96.99115l3.36561,-0.52577c22.95606,-14.87171 35.07833,-31.87992 36.36679,-51.02464c1.7965,-26.6935 -19.10542,-45.44074 -39.7324,-45.44074c-20.62698,0 -41.18926,18.7163 -39.7324,45.44074c0.9795,17.96794 13.11855,34.98978 36.41713,51.0655l3.31527,0.48491z"/>
  <path id="path-9" d="m0.29038,18.68916l16.32466,-8.22456l78.42091,-10.46183c3.58421,4.10029 7.0184,6.15044 10.30258,6.15044c0.79554,0 -0.50813,-1.66109 4.00514,-1.91851c9.41235,-0.53683 43.78397,-1.94747 103.11485,-4.23193l114.28253,16.19067l-18.38375,13.9393l-10.76562,-2.95492l-22.27583,9.5672l-31.51514,5.52314l-27.96905,7.14685c-13.03398,1.07838 -22.86374,1.71585 -29.48929,1.91242c-6.62555,0.19657 -18.86379,0.86582 -36.71471,2.00775c-8.70558,-4.46566 -16.23676,-7.41106 -22.59354,-8.83619c-6.35679,-1.42513 -18.04423,-2.78836 -35.06233,-4.0897l-4.48448,-3.66427l-49.87762,-2.47607l-3.04111,-7.09113l-34.2782,-8.48866z"/>
  <polygon points="0.246083811 5.20034413 1.90047807 0.185304717 13.5702278 1.10232897 28.1327454 3.1009864 47.4290429 3.87990729 56.2930419 11.825181 47.4290429 7.59379282 23.4920796 9.49189971 5.40665639 4.95486147" id="path-11"/>
  <polygon points="0 23.0993627 2.57484502 18.9213185 7.28745921 10.8348381 9.21683686 2.82824166 16.7657611 0.63026029 20.5168084 1.13686838e-13 20.5168084 1.72619335 22.8287478 1.72619335 22.8287478 3.72011278 25.1831411 3.72011278 25.1831411 5.55658039 27.6669902 5.55658039 27.6669902 7.55778126 30.3746691 7.55778126 30.3746691 9.43826251 32.7019615 9.43826251 32.7019615 10.8839615 36.529151 10.8839615 38.6836446 12.5053858 42.2066975 12.5053858 44.234574 14.0315207 47.3928293 14.0315207 49.2085755 15.3980111 52.1100683 15.3980111 52.1100683 17.7288844 57.1955489 17.7288844 59.601724 19.5397185 61.5827874 19.5397185 63.2192071 20.7712518 65.4439685 20.7712518 67.2467329 22.1279724 67.2467329 23.991331 64.5302461 28.4323793 26.244063 23.0993627" id="path-13"/>
  <polygon points="0 27.9473771 2.34446415 22.8924594 6.63542338 13.1088165 8.39217251 3.42182324 15.2656667 0.762537141 19.3890586 1.13686838e-13 19.3890586 2.08848084 20.7861757 2.08848084 20.7861757 4.50087719 22.9299127 4.50087719 22.9299127 6.72277627 25.1915227 6.72277627 25.1915227 9.14398227 27.6569356 9.14398227 27.6569356 11.4191324 29.7759965 11.4191324 29.7759965 13.1682498 33.2607533 13.1682498 35.2224764 15.1299729 38.4303088 15.1299729 40.2767437 16.9764078 43.1524183 16.9764078 44.805703 18.6296925 47.4475885 18.6296925 47.4475885 21.4497614 52.0780524 21.4497614 54.2689381 23.6406471 56.0727485 23.6406471 57.5627517 25.1306503 59.5884556 25.1306503 61.22992 26.7721147 61.22992 29.0265487 58.7564873 34.3996688 23.8959099 27.9473771" id="path-15"/>
  <linearGradient id="linearGradient-4" y2="98.7185411%" x2="50%" y1="2.14956647%" x1="50%">
   <stop offset="0%" stop-color="#7BE1E4"/>
   <stop offset="100%" stop-color="#2B77C3"/>
  </linearGradient>
  <linearGradient id="linearGradient-5" y2="160.517846%" x2="100%" y1="6.12538352%" x1="13.9530412%">
   <stop offset="0%" stop-color="#FFFFFF"/>
   <stop offset="100%" stop-color="#E1E1E1"/>
  </linearGradient>
  <linearGradient id="linearGradient-6" y2="103.897574%" x2="44.0012055%" y1="24.8149244%" x1="74.5685363%">
   <stop offset="0%" stop-color="#F5515F"/>
   <stop offset="100%" stop-color="#9F041B"/>
  </linearGradient>
  <radialGradient id="radialGradient-7" gradientTransform="translate(0.728047,0.000000),scale(0.163371,1.000000),rotate(162.165390),translate(-0.728047,-0.000000)" r="545.184986%" fy="0%" fx="72.8046674%" cy="0%" cx="72.8046674%">
   <stop offset="0%" stop-color="#FFA2AA"/>
   <stop offset="100%" stop-color="#B05160"/>
  </radialGradient>
  <radialGradient id="radialGradient-8" gradientTransform="translate(0.728047,0.000000),scale(0.163371,1.000000),rotate(162.165390),translate(-0.728047,-0.000000)" r="545.184986%" fy="0%" fx="72.8046674%" cy="0%" cx="72.8046674%">
   <stop offset="0%" stop-color="#D6FFA2"/>
   <stop offset="96.9111272%" stop-color="#B05160"/>
  </radialGradient>
 </defs>
 <g>
  <title>background</title>
  <rect fill="none" id="canvas_background" height="565" width="387" y="-1" x="-1"/>
 </g>
 <g>
  <title>Layer 1</title>
  <g fill-rule="evenodd" fill="none" id="Floating-Island---Aj-Matillano">
   <path fill="#000000" fill-opacity="0.2" id="ajmatillano" d="m262.384,432.784l-0.632,0c-0.13867,0 -0.25067,-0.02133 -0.336,-0.064c-0.08533,-0.04267 -0.14133,-0.13333 -0.168,-0.272l-0.16,-0.752c-0.21333,0.192 -0.42133,0.364 -0.624,0.516c-0.20267,0.152 -0.416,0.28 -0.64,0.384c-0.224,0.104 -0.46266,0.18267 -0.716,0.236c-0.25334,0.05333 -0.53466,0.08 -0.844,0.08c-0.31467,0 -0.60933,-0.044 -0.884,-0.132c-0.27467,-0.088 -0.51333,-0.22 -0.716,-0.396c-0.20267,-0.176 -0.364,-0.39867 -0.484,-0.668c-0.12,-0.26933 -0.18,-0.588 -0.18,-0.956c0,-0.32 0.088,-0.628 0.264,-0.924c0.176,-0.296 0.46,-0.55867 0.852,-0.788c0.392,-0.22933 0.90533,-0.41733 1.54,-0.564c0.63467,-0.14667 1.41066,-0.23067 2.328,-0.252l0,-0.632c0,-0.62934 -0.13467,-1.10533 -0.404,-1.428c-0.26934,-0.32267 -0.668,-0.484 -1.196,-0.484c-0.34667,0 -0.63867,0.044 -0.876,0.132c-0.23733,0.088 -0.44267,0.18667 -0.616,0.296c-0.17333,0.10933 -0.32267,0.208 -0.448,0.296c-0.12533,0.088 -0.24933,0.132 -0.372,0.132c-0.096,0 -0.18,-0.02533 -0.252,-0.076c-0.072,-0.05067 -0.12933,-0.11333 -0.172,-0.188l-0.256,-0.456c0.448,-0.432 0.93066,-0.75467 1.448,-0.968c0.51734,-0.21333 1.09066,-0.32 1.72,-0.32c0.45334,0 0.856,0.07467 1.208,0.224c0.352,0.14933 0.648,0.35733 0.888,0.624c0.24,0.26667 0.42133,0.58933 0.544,0.968c0.12267,0.37867 0.184,0.79466 0.184,1.248l0,5.184zm-3.696,-0.872c0.25067,0 0.48,-0.02533 0.688,-0.076c0.208,-0.05067 0.404,-0.12267 0.588,-0.216c0.184,-0.09333 0.36,-0.20667 0.528,-0.34c0.168,-0.13333 0.332,-0.28533 0.492,-0.456l0,-1.688c-0.656,0.02133 -1.21333,0.07333 -1.672,0.156c-0.45867,0.08267 -0.832,0.19067 -1.12,0.324c-0.288,0.13333 -0.49733,0.29067 -0.628,0.472c-0.13067,0.18133 -0.196,0.384 -0.196,0.608c0,0.21333 0.03467,0.39733 0.104,0.552c0.06933,0.15467 0.16267,0.28133 0.28,0.38c0.11733,0.09867 0.256,0.17067 0.416,0.216c0.16,0.04533 0.33333,0.068 0.52,0.068zm7.44,-7.232l0,8.704c0,0.32534 -0.04267,0.628 -0.128,0.908c-0.08533,0.28 -0.22,0.524 -0.404,0.732c-0.184,0.208 -0.42133,0.372 -0.712,0.492c-0.29067,0.12 -0.63867,0.18 -1.044,0.18c-0.176,0 -0.336,-0.01333 -0.48,-0.04c-0.144,-0.02667 -0.288,-0.06667 -0.432,-0.12l0.064,-0.768c0.01067,-0.06933 0.03467,-0.11333 0.072,-0.132c0.03733,-0.01867 0.096,-0.028 0.176,-0.028c0.04267,0 0.088,0.00133 0.136,0.004c0.048,0.00267 0.10667,0.004 0.176,0.004c0.416,0 0.712,-0.09733 0.888,-0.292c0.176,-0.19467 0.264,-0.508 0.264,-0.94l0,-8.704l1.424,0zm0.32,-2.544c0,0.13867 -0.028,0.268 -0.084,0.388c-0.056,0.12 -0.13067,0.22667 -0.224,0.32c-0.09333,0.09333 -0.20133,0.16667 -0.324,0.22c-0.12267,0.05333 -0.25333,0.08 -0.392,0.08c-0.13867,0 -0.268,-0.02667 -0.388,-0.08c-0.12,-0.05333 -0.22667,-0.12667 -0.32,-0.22c-0.09333,-0.09333 -0.16667,-0.2 -0.22,-0.32c-0.05333,-0.12 -0.08,-0.24933 -0.08,-0.388c0,-0.13867 0.02667,-0.27067 0.08,-0.396c0.05333,-0.12533 0.12667,-0.23467 0.22,-0.328c0.09333,-0.09333 0.2,-0.16667 0.32,-0.22c0.12,-0.05333 0.24933,-0.08 0.388,-0.08c0.13867,0 0.26933,0.02667 0.392,0.08c0.12267,0.05333 0.23067,0.12667 0.324,0.22c0.09333,0.09333 0.168,0.20267 0.224,0.328c0.056,0.12533 0.084,0.25733 0.084,0.396zm2.16,10.648l0,-8.104l0.848,0c0.20267,0 0.33067,0.09867 0.384,0.296l0.104,0.832c0.29867,-0.368 0.63333,-0.66933 1.004,-0.904c0.37067,-0.23467 0.80133,-0.352 1.292,-0.352c0.54934,0 0.99333,0.152 1.332,0.456c0.33867,0.304 0.58267,0.71466 0.732,1.232c0.112,-0.29333 0.26,-0.54667 0.444,-0.76c0.184,-0.21333 0.39067,-0.38933 0.62,-0.528c0.22933,-0.13867 0.47333,-0.24 0.732,-0.304c0.25867,-0.064 0.52133,-0.096 0.788,-0.096c0.42667,0 0.80666,0.068 1.14,0.204c0.33334,0.136 0.616,0.33466 0.848,0.596c0.232,0.26134 0.40933,0.58266 0.532,0.964c0.12267,0.38133 0.184,0.81733 0.184,1.308l0,5.16l-1.424,0l0,-5.16c0,-0.63467 -0.13867,-1.116 -0.416,-1.444c-0.27734,-0.328 -0.68,-0.492 -1.208,-0.492c-0.23467,0 -0.45733,0.04133 -0.668,0.124c-0.21067,0.08267 -0.396,0.204 -0.556,0.364c-0.16,0.16 -0.28667,0.36133 -0.38,0.604c-0.09333,0.24267 -0.14,0.524 -0.14,0.844l0,5.16l-1.424,0l0,-5.16c0,-0.65067 -0.13067,-1.136 -0.392,-1.456c-0.26133,-0.32 -0.64266,-0.48 -1.144,-0.48c-0.352,0 -0.67866,0.09467 -0.98,0.284c-0.30133,0.18933 -0.57733,0.44667 -0.828,0.772l0,6.04l-1.424,0zm19.088,0l-0.632,0c-0.13867,0 -0.25067,-0.02133 -0.336,-0.064c-0.08533,-0.04267 -0.14133,-0.13333 -0.168,-0.272l-0.16,-0.752c-0.21333,0.192 -0.42133,0.364 -0.624,0.516c-0.20267,0.152 -0.416,0.28 -0.64,0.384c-0.224,0.104 -0.46267,0.18267 -0.716,0.236c-0.25334,0.05333 -0.53466,0.08 -0.844,0.08c-0.31467,0 -0.60933,-0.044 -0.884,-0.132c-0.27467,-0.088 -0.51333,-0.22 -0.716,-0.396c-0.20267,-0.176 -0.364,-0.39867 -0.484,-0.668c-0.12,-0.26933 -0.18,-0.588 -0.18,-0.956c0,-0.32 0.088,-0.628 0.264,-0.924c0.176,-0.296 0.46,-0.55867 0.852,-0.788c0.392,-0.22933 0.90533,-0.41733 1.54,-0.564c0.63467,-0.14667 1.41066,-0.23067 2.328,-0.252l0,-0.632c0,-0.62934 -0.13466,-1.10533 -0.404,-1.428c-0.26934,-0.32267 -0.668,-0.484 -1.196,-0.484c-0.34667,0 -0.63867,0.044 -0.876,0.132c-0.23733,0.088 -0.44267,0.18667 -0.616,0.296c-0.17333,0.10933 -0.32267,0.208 -0.448,0.296c-0.12533,0.088 -0.24933,0.132 -0.372,0.132c-0.096,0 -0.18,-0.02533 -0.252,-0.076c-0.072,-0.05067 -0.12933,-0.11333 -0.172,-0.188l-0.256,-0.456c0.448,-0.432 0.93066,-0.75467 1.448,-0.968c0.51734,-0.21333 1.09066,-0.32 1.72,-0.32c0.45334,0 0.856,0.07467 1.208,0.224c0.352,0.14933 0.648,0.35733 0.888,0.624c0.24,0.26667 0.42133,0.58933 0.544,0.968c0.12267,0.37867 0.184,0.79466 0.184,1.248l0,5.184zm-3.696,-0.872c0.25067,0 0.48,-0.02533 0.688,-0.076c0.208,-0.05067 0.404,-0.12267 0.588,-0.216c0.184,-0.09333 0.36,-0.20667 0.528,-0.34c0.168,-0.13333 0.332,-0.28533 0.492,-0.456l0,-1.688c-0.656,0.02133 -1.21333,0.07333 -1.672,0.156c-0.45867,0.08267 -0.832,0.19067 -1.12,0.324c-0.288,0.13333 -0.49733,0.29067 -0.628,0.472c-0.13067,0.18133 -0.196,0.384 -0.196,0.608c0,0.21333 0.03467,0.39733 0.104,0.552c0.06933,0.15467 0.16267,0.28133 0.28,0.38c0.11733,0.09867 0.256,0.17067 0.416,0.216c0.16,0.04533 0.33333,0.068 0.52,0.068zm8.312,1c-0.64,0 -1.132,-0.17866 -1.476,-0.536c-0.344,-0.35733 -0.516,-0.872 -0.516,-1.544l0,-4.96l-0.976,0c-0.08533,0 -0.15733,-0.02533 -0.216,-0.076c-0.05867,-0.05067 -0.088,-0.12933 -0.088,-0.236l0,-0.568l1.328,-0.168l0.328,-2.504c0.01067,-0.08 0.04533,-0.14533 0.104,-0.196c0.05867,-0.05067 0.13333,-0.076 0.224,-0.076l0.72,0l0,2.792l2.32,0l0,1.032l-2.32,0l0,4.864c0,0.34133 0.08267,0.59467 0.248,0.76c0.16533,0.16533 0.37867,0.248 0.64,0.248c0.14933,0 0.27867,-0.02 0.388,-0.06c0.10933,-0.04 0.204,-0.084 0.284,-0.132c0.08,-0.048 0.148,-0.092 0.204,-0.132c0.056,-0.04 0.10533,-0.06 0.148,-0.06c0.07467,0 0.14133,0.04533 0.2,0.136l0.416,0.68c-0.24534,0.22933 -0.54133,0.40933 -0.888,0.54c-0.34667,0.13067 -0.704,0.196 -1.072,0.196zm5.096,-8.232l0,8.104l-1.424,0l0,-8.104l1.424,0zm0.32,-2.544c0,0.13867 -0.028,0.268 -0.084,0.388c-0.056,0.12 -0.13067,0.22667 -0.224,0.32c-0.09333,0.09333 -0.20133,0.16667 -0.324,0.22c-0.12267,0.05333 -0.25333,0.08 -0.392,0.08c-0.13867,0 -0.268,-0.02667 -0.388,-0.08c-0.12,-0.05333 -0.22667,-0.12667 -0.32,-0.22c-0.09333,-0.09333 -0.16667,-0.2 -0.22,-0.32c-0.05333,-0.12 -0.08,-0.24933 -0.08,-0.388c0,-0.13867 0.02667,-0.27067 0.08,-0.396c0.05333,-0.12533 0.12667,-0.23467 0.22,-0.328c0.09333,-0.09333 0.2,-0.16667 0.32,-0.22c0.12,-0.05333 0.24933,-0.08 0.388,-0.08c0.13867,0 0.26933,0.02667 0.392,0.08c0.12267,0.05333 0.23067,0.12667 0.324,0.22c0.09333,0.09333 0.168,0.20267 0.224,0.328c0.056,0.12533 0.084,0.25733 0.084,0.396zm3.776,-1.136l0,11.784l-1.424,0l0,-11.784l1.424,0zm4.096,0l0,11.784l-1.424,0l0,-11.784l1.424,0zm8.464,11.784l-0.632,0c-0.13867,0 -0.25067,-0.02133 -0.336,-0.064c-0.08533,-0.04267 -0.14133,-0.13333 -0.168,-0.272l-0.16,-0.752c-0.21333,0.192 -0.42133,0.364 -0.624,0.516c-0.20267,0.152 -0.416,0.28 -0.64,0.384c-0.224,0.104 -0.46266,0.18267 -0.716,0.236c-0.25333,0.05333 -0.53467,0.08 -0.844,0.08c-0.31467,0 -0.60933,-0.044 -0.884,-0.132c-0.27467,-0.088 -0.51333,-0.22 -0.716,-0.396c-0.20267,-0.176 -0.364,-0.39867 -0.484,-0.668c-0.12,-0.26933 -0.18,-0.588 -0.18,-0.956c0,-0.32 0.088,-0.628 0.264,-0.924c0.176,-0.296 0.46,-0.55867 0.852,-0.788c0.392,-0.22933 0.90533,-0.41733 1.54,-0.564c0.63467,-0.14667 1.41066,-0.23067 2.328,-0.252l0,-0.632c0,-0.62934 -0.13467,-1.10533 -0.404,-1.428c-0.26933,-0.32267 -0.668,-0.484 -1.196,-0.484c-0.34667,0 -0.63866,0.044 -0.876,0.132c-0.23734,0.088 -0.44267,0.18667 -0.616,0.296c-0.17333,0.10933 -0.32267,0.208 -0.448,0.296c-0.12533,0.088 -0.24933,0.132 -0.372,0.132c-0.096,0 -0.18,-0.02533 -0.252,-0.076c-0.072,-0.05067 -0.12933,-0.11333 -0.172,-0.188l-0.256,-0.456c0.448,-0.432 0.93066,-0.75467 1.448,-0.968c0.51734,-0.21333 1.09066,-0.32 1.72,-0.32c0.45334,0 0.856,0.07467 1.208,0.224c0.352,0.14933 0.648,0.35733 0.888,0.624c0.24,0.26667 0.42133,0.58933 0.544,0.968c0.12267,0.37867 0.184,0.79466 0.184,1.248l0,5.184zm-3.696,-0.872c0.25067,0 0.48,-0.02533 0.688,-0.076c0.208,-0.05067 0.404,-0.12267 0.588,-0.216c0.184,-0.09333 0.36,-0.20667 0.528,-0.34c0.168,-0.13333 0.332,-0.28533 0.492,-0.456l0,-1.688c-0.656,0.02133 -1.21333,0.07333 -1.672,0.156c-0.45867,0.08267 -0.832,0.19067 -1.12,0.324c-0.288,0.13333 -0.49733,0.29067 -0.628,0.472c-0.13067,0.18133 -0.196,0.384 -0.196,0.608c0,0.21333 0.03467,0.39733 0.104,0.552c0.06933,0.15467 0.16267,0.28133 0.28,0.38c0.11733,0.09867 0.256,0.17067 0.416,0.216c0.16,0.04533 0.33333,0.068 0.52,0.068zm5.856,0.872l0,-8.104l0.848,0c0.20267,0 0.33067,0.09867 0.384,0.296l0.112,0.88c0.352,-0.38933 0.74533,-0.704 1.18,-0.944c0.43467,-0.24 0.93733,-0.36 1.508,-0.36c0.44267,0 0.83333,0.07333 1.172,0.22c0.33867,0.14667 0.62133,0.35467 0.848,0.624c0.22667,0.26934 0.39867,0.59333 0.516,0.972c0.11733,0.37867 0.176,0.79733 0.176,1.256l0,5.16l-1.424,0l0,-5.16c0,-0.61334 -0.14,-1.08933 -0.42,-1.428c-0.28,-0.33867 -0.708,-0.508 -1.284,-0.508c-0.42133,0 -0.81466,0.10133 -1.18,0.304c-0.36533,0.20267 -0.70267,0.47733 -1.012,0.824l0,5.968l-1.424,0zm12.176,-8.232c0.592,0 1.12666,0.09867 1.604,0.296c0.47734,0.19733 0.88266,0.47733 1.216,0.84c0.33333,0.36267 0.58933,0.80133 0.768,1.316c0.17867,0.51467 0.268,1.08933 0.268,1.724c0,0.64 -0.08933,1.216 -0.268,1.728c-0.17867,0.512 -0.43467,0.94933 -0.768,1.312c-0.33334,0.36267 -0.73866,0.64133 -1.216,0.836c-0.47734,0.19467 -1.012,0.292 -1.604,0.292c-0.592,0 -1.12666,-0.09733 -1.604,-0.292c-0.47734,-0.19467 -0.884,-0.47333 -1.22,-0.836c-0.336,-0.36267 -0.59467,-0.8 -0.776,-1.312c-0.18133,-0.512 -0.272,-1.088 -0.272,-1.728c0,-0.63467 0.09067,-1.20933 0.272,-1.724c0.18133,-0.51467 0.44,-0.95333 0.776,-1.316c0.336,-0.36267 0.74266,-0.64267 1.22,-0.84c0.47734,-0.19733 1.012,-0.296 1.604,-0.296zm0,7.232c0.8,0 1.39733,-0.268 1.792,-0.804c0.39467,-0.536 0.592,-1.28399 0.592,-2.244c0,-0.96534 -0.19733,-1.71733 -0.592,-2.256c-0.39467,-0.53867 -0.992,-0.808 -1.792,-0.808c-0.40533,0 -0.75733,0.06933 -1.056,0.208c-0.29867,0.13867 -0.548,0.33866 -0.748,0.6c-0.2,0.26134 -0.34933,0.58267 -0.448,0.964c-0.09867,0.38133 -0.148,0.812 -0.148,1.292c0,0.48 0.04933,0.90933 0.148,1.288c0.09867,0.37867 0.248,0.69733 0.448,0.956c0.2,0.25867 0.44933,0.45733 0.748,0.596c0.29867,0.13867 0.65067,0.208 1.056,0.208z"/>
   <g id="hot-air-balloon" class="floating-balloon">
    <path fill-rule="nonzero" fill="#979797" id="Path-78" d="m-224.17066,150.11831l-0.27479,-0.22314c10.31102,-12.69786 16.36761,-25.07519 18.17371,-37.13161c1.80869,-12.07374 2.4125,-20.21497 1.81393,-24.4085l0.35043,-0.05001c0.60501,4.23857 -0.00059,12.40382 -1.81429,24.51095c-1.81629,12.12445 -7.9006,24.55843 -18.24899,37.30231z"/>
    <g id="balloon">
     <mask id="mask-3">
      <use id="svg_1" xlink:href="#path-2"/>
     </mask>
     <use id="svg_2" x="-243.2124" y="-15" xlink:href="#path-2" fill="#D8D8D8"/>
     <ellipse ry="48.49558" rx="42.73689" cy="33.49558" cx="-203.71316" mask="url(#mask-3)" fill="url(#linearGradient-4)" id="Oval-5-Copy-3"/>
     <ellipse ry="48.49558" rx="33.67149" cy="33.49558" cx="-203.06563" mask="url(#mask-3)" fill="url(#linearGradient-5)" id="Oval-5-Copy-5"/>
     <ellipse ry="48.49558" rx="19.74962" cy="33.49558" cx="-203.38939" mask="url(#mask-3)" fill="url(#linearGradient-4)" id="Oval-5-Copy-4"/>
     <path mask="url(#mask-3)" fill="#064245" fill-opacity="0.05" id="Oval-3" d="m-216.34222,94.2767c13.97719,0 23.63705,-26.34415 23.63705,-58.8413c0,-32.49715 -9.65986,-58.8413 -23.63705,-58.8413c-13.97719,0 -32.69794,21.6122 -32.69794,54.10935c0,32.49715 18.72075,63.57325 32.69794,63.57325z"/>
    </g>
    <g fill="#696969" id="Basket">
     <path id="Combined-Shape" d="m-199.31288,86.64586c0.05518,-0.10144 0.13421,-0.17917 0.23495,-0.22193c0.32968,-0.13994 0.76709,0.1475 0.977,0.64201c0.20991,0.49451 0.11282,1.00883 -0.21685,1.14877c-0.10425,0.04425 -0.21926,0.04577 -0.33445,0.01152c0.48607,1.51736 0.32621,2.60339 -0.47959,3.25808c-1.84375,1.498 -6.36195,1.50548 -8.2149,0c-0.75201,-0.611 -0.94474,-1.5921 -0.57818,-2.94331c-0.18408,0.13048 -0.38704,0.17494 -0.56026,0.10141c-0.32967,-0.13993 -0.42676,-0.65426 -0.21685,-1.14877c0.20991,-0.49451 0.64732,-0.78195 0.977,-0.64201c0.14102,0.05986 0.23948,0.18823 0.28956,0.35424c0.21993,-0.49057 0.49403,-1.01699 0.8223,-1.57926l-0.19498,-4.68862l0.64848,0l0.56742,4.53936l4.70148,0l0.56742,-4.53936l0.64847,0l-0.19471,4.6822c0.20714,0.35629 0.3927,0.69818 0.55669,1.02567zm-6.84677,-5.70787l0.42216,0l0.8748,4.46342l-0.46949,0.07594l-0.82747,-4.53936zm5.18784,0l-0.82747,4.53936l-0.46949,-0.07594l0.8748,-4.46342l0.42216,0z"/>
    </g>
   </g>
   <g id="island-full" class="floating-island">
    <g id="debris">
     <polygon points="-192.52166748046875,268.5398254394531 -196.13275146484375,280.01251220703125 -190.54452514648438,290.363525390625 -190.54452514648438,303.61334228515625 -176.513916015625,312.07965087890625 -168.16815185546875,297.1541442871094 -180.55612182617188,272.1249694824219 " fill="#636260" id="Path-55"/>
     <path fill="#636260" id="Path-56" d="m-113.19706,346.77434l2.38757,-15.57964l10.98994,4.95659c3.13671,7.08203 4.70506,10.62305 4.70506,10.62305c0,0 3.84937,7.40629 11.5481,22.21888l-1.68924,16.00679l-16.56421,-10.36874l-11.37722,-7.02935l-2.22774,-12.43038l2.22774,-8.3972z"/>
     <path fill="#636260" id="Path-57" d="m-143.85141,294.38054l-3.43179,7.14727l3.43179,8.27266c4.5558,1.51946 6.83369,2.27918 6.83369,2.27918c0,0 0,-3.51728 0,-10.55184l-6.83369,-7.14727z"/>
     <polygon points="-59.495574951171875,377.9815673828125 -61.430877685546875,367.3009033203125 -68.69912719726562,372.6412353515625 -66.8438720703125,385 " fill="#636260" id="Path-58"/>
     <polygon points="-43.031280517578125,336.8583984375 -51.000030517578125,320.91314697265625 -39.43267822265625,312.07965087890625 -33.300872802734375,324.4690246582031 " fill="#9A9A9A" id="Path-59"/>
     <polygon points="-18.07965087890625,331.1947021484375 -18.07965087890625,324.34625244140625 -14.2147216796875,300.69561767578125 1.98114013671875,288.47088623046875 8.09893798828125,275.6194763183594 19.79644775390625,300.69561767578125 8.09893798828125,317.9205322265625 " fill="#9A9A9A" id="Path-60"/>
    </g>
    <g id="island">
     <g id="land">
      <polygon points="-256.0915832519531,150.6288604736328 -247.27078247070312,178.30239868164062 -234.58444213867188,181.41461181640625 -228.37191772460938,198.38156127929688 -228.37191772460938,216.42120361328125 -215.0194091796875,228.94869995117188 -209.53799438476562,236.85736083984375 -186.73779296875,236.85736083984375 -205.33428955078125,178.30239868164062 -213.0806884765625,155.88650512695312 " fill="#404040" id="Path-3"/>
      <polygon points="-219.30856323242188,166.14047241210938 -214.01846313476562,194.75860595703125 -202.2493896484375,206.50717163085938 -199.14227294921875,219.66326904296875 -193.8778076171875,239.4571533203125 -179.68145751953125,253.08468627929688 -171.24154663085938,260.4518737792969 -166.3067626953125,260.4518737792969 -164.5234375,253.08468627929688 -158.59109497070312,257.3310852050781 -154.50009155273438,253.08468627929688 -149.10922241210938,244.36294555664062 -158.59109497070312,215.3211669921875 -158.59109497070312,206.50717163085938 -168.42141723632812,189.36090087890625 -162.63424682617188,168.15777587890625 -179.68145751953125,162.6439208984375 " fill="#656565" id="Path-2"/>
      <polygon points="47.5914306640625,159.38818359375 69.4521484375,147.6772003173828 73.1690673828125,167.73587036132812 67.39208984375,173.75192260742188 67.39208984375,183.62155151367188 60.3802490234375,193.93527221679688 54.05670166015625,193.93527221679688 54.05670166015625,186.80551147460938 47.5914306640625,186.80551147460938 " fill="#3E3E3E" id="Path-9"/>
      <polygon points="-166.87896728515625,171.79953002929688 -170.4677734375,196.5675048828125 -165.035888671875,205.0057373046875 -156.57891845703125,225.42138671875 -156.57891845703125,247.92782592773438 -151.0052490234375,255.32064819335938 -142.845458984375,261.2102966308594 -138.73056030273438,275.30413818359375 -129.37338256835938,290.1546936035156 -124.73065185546875,292.1173400878906 -115.58016967773438,284.89190673828125 -112.72760009765625,290.1546936035156 -104.81378173828125,290.1546936035156 -100.09759521484375,290.1546936035156 -95.26358032226562,221.47216796875 -102.62225341796875,179.93368530273438 -138.73056030273438,166.0294189453125 " fill="#484848" id="Path-4"/>
      <polygon points="34.7530517578125,203.0174560546875 45.244384765625,199.341552734375 47.4974365234375,191.6959228515625 52.0240478515625,179.04202270507812 52.0240478515625,157.48873901367188 37.1409912109375,153.80429077148438 " fill="#3E3E3E" id="Path-8"/>
      <polygon points="10.42401123046875,231.70050048828125 22.49200439453125,227.22348022460938 28.65325927734375,231.70050048828125 36.348388671875,227.22348022460938 40.784423828125,213.21331787109375 38.7210693359375,203.66824340820312 38.7210693359375,177.67041015625 40.784423828125,156.1068572998047 13.32275390625,166.19683837890625 13.32275390625,208.28533935546875 " fill="#464646" id="Path-7"/>
      <polygon points="-41.716888427734375,287.8059997558594 -22.4781494140625,281.4978332519531 -18.61090087890625,287.8059997558594 -11.41796875,287.8059997558594 -4.29840087890625,274.6875 -1.468017578125,261.4801940917969 6.25274658203125,261.4801940917969 17.263427734375,256.58636474609375 17.263427734375,238.28024291992188 13.0870361328125,234.0491943359375 17.263427734375,219.89044189453125 21.3509521484375,209.23336791992188 17.263427734375,198.89743041992188 17.263427734375,163.91134643554688 -43.662445068359375,175.653076171875 -51.562591552734375,242.12869262695312 -51.562591552734375,271.0269470214844 " fill="#6A6A6A" id="Path-6"/>
      <polygon points="-106.96261596679688,184.36288452148438 -106.96261596679688,227.05606079101562 -103.459228515625,268.5501403808594 -106.96261596679688,297.0401916503906 -92.1103515625,317.2286682128906 -84.2666015625,333.0887145996094 -80.29345703125,337.0618591308594 -75.03582763671875,333.0887145996094 -71.1959228515625,324.8298645019531 -64.7886962890625,326.8403625488281 -55.09332275390625,306.5118103027344 -41.05242919921875,292.1566162109375 -37.35943603515625,286.2874450683594 -41.05242919921875,260.7123718261719 -45.68316650390625,253.81063842773438 -45.68316650390625,240.38980102539062 -41.05242919921875,217.3231201171875 -37.35943603515625,203.232666015625 -41.05242919921875,173.59820556640625 " fill="#898989" id="Path-5"/>
      <path fill="url(#linearGradient-6)" fill-opacity="0.6" id="Combined-Shape" d="m-37.4306,286.40057l-3.62182,5.75605l-14.04089,14.35519l-9.69539,20.32855l-6.40723,-2.01048l-3.83989,8.25885l-5.25765,3.97313l-3.97313,-3.97313l-7.84377,-15.86006l-14.85225,-20.18848l0.8467,-6.88551l-6.61167,0l-2.85259,-5.26277l-9.15049,7.22542l-4.64272,-1.96265l-9.35718,-14.85055l-4.11491,-14.09384l-8.15977,-5.88966l-2.67985,-3.55452l-0.815,1.31857l-4.09099,4.24643l-5.93236,-4.24643l-1.7833,7.3672l-4.93481,0l-8.43991,-7.3672l-14.19633,-13.62753l-0.69145,-2.59978l-14.96876,0l-5.48141,-7.90868l-13.35251,-12.52748l0,-18.03964l-6.2125,-16.96694l-12.68634,-3.11222l-8.82083,-27.67355l43.01091,5.25765l3.25439,9.41727l30.14483,-2.65987l17.04722,5.51386l-0.80132,2.9359l24.705,-5.06424l36.10832,13.90425l0.64054,3.6157l60.92929,-9.95119l0.18886,1.51549l58.12697,-11.20234l0,0.83761l19.6977,-7.23732l0.17989,-3.70734l14.27639,3.53428l18.03475,-9.66137l3.71691,20.05866l-5.77692,6.01607l0,9.86962l-7.01191,10.31373l-6.32353,0l0,-7.12977l-4.80985,0l-1.7494,4.8904l-2.25303,7.64563l-6.52338,2.28562l0,2.04109l2.06343,9.54507l-4.43603,14.01015l-7.69516,4.47703l-6.16125,-4.47703l-8.29988,3.07912l-1.10513,3.7466l4.1764,4.23106l0,18.30611l-11.01066,4.89381l-7.72078,0l-2.83039,13.20733l-7.11952,13.11849l-7.19296,0l-3.86723,-6.30815l-14.95247,4.90273zm-155.09106,-17.86074l11.96554,3.58513l12.38797,25.02919l-8.34578,14.9255l-14.03061,-8.46632l0,-13.2498l-5.58822,-10.35102l3.6111,-11.47268zm79.32461,78.2345l2.38756,-15.57964l10.98995,4.9566c3.1367,7.08203 4.70505,10.62304 4.70505,10.62304c0,0 3.84937,7.4063 11.5481,22.21889l-1.68924,16.00678l-16.56421,-10.36873l-11.37721,-7.02935l-2.22774,-12.43038l2.22774,-8.39721zm-30.65436,-52.3938l6.8337,7.14727c0,7.03457 0,10.55185 0,10.55185c0,0 -2.2779,-0.75973 -6.8337,-2.27918l-3.43179,-8.27267l3.43179,-7.14727zm84.35582,83.60105l-7.34828,7.01842l-1.85526,-12.35877l7.26825,-5.34034l1.93529,10.68069zm16.46431,-41.12317l-7.96873,-15.94528l11.56732,-8.83348l6.13179,12.38938l-9.73038,12.38938zm24.95162,-5.66372l0,-6.84844l3.86493,-23.65065l16.19586,-12.2247l6.11783,-12.85143l11.69749,25.07613l-11.69749,17.22494l-26.17862,13.27415z"/>
      <path fill="url(#radialGradient-7)" id="face" d="m-256.37335,150.23783l16.32466,-8.22455l78.42091,-10.46184c3.58421,4.1003 7.0184,6.15045 10.30258,6.15045c0.79554,0 -0.50813,-1.6611 4.00514,-1.91851c9.41235,-0.53683 43.78397,-1.94748 103.11485,-4.23194l114.28253,16.19067l-18.38375,13.93931l-10.76562,-2.95492l-22.27583,9.5672l-31.51514,5.52314l-27.96905,7.14684c-13.03398,1.07839 -22.86374,1.71586 -29.48929,1.91243c-6.62555,0.19657 -18.86379,0.86582 -36.71471,2.00775c-8.70558,-4.46567 -16.23676,-7.41107 -22.59354,-8.8362c-6.35679,-1.42513 -18.04423,-2.78836 -35.06233,-4.08969l-4.48448,-3.66427l-49.87762,-2.47607l-3.04111,-7.09113l-34.2782,-8.48867z"/>
      <g id="Group-8">
       <mask id="mask-10">
        <use id="svg_3" xlink:href="#path-9"/>
       </mask>
       <use x="-256.66373" y="131.54867" xlink:href="#path-9" fill="url(#radialGradient-8)" id="face-copy"/>
       <path mask="url(#mask-10)" fill="#000000" fill-opacity="0.116" id="shadow" d="m-225.9478,161.67606l80.05952,-4.01337c10.61642,2.67558 15.92463,4.01337 15.92463,4.01337c0,0 37.24113,-8.62292 111.72338,-25.86876l0,12.93438l-8.87918,15.35598l49.58047,7.62428l30.04494,-17.84426l30.57402,-5.136c-1.81789,-8.74351 -6.8088,-14.24579 -14.97273,-16.50685c-12.24588,-3.39158 -141.47889,-25.34645 -153.3404,-25.34645c-7.90767,0 -65.36868,8.44882 -172.38303,25.34645l-4.25078,29.44123l35.91916,0z"/>
       <ellipse ry="1" rx="8.14159" cy="177.38938" cx="-69.05311" mask="url(#mask-10)" fill="#000000" fill-opacity="0.116" id="Oval-5"/>
       <ellipse ry="1.41593" rx="11.50442" cy="170.13274" cx="-44.09735" mask="url(#mask-10)" fill="#000000" fill-opacity="0.116" id="Oval-5-Copy"/>
       <ellipse ry="1.41593" rx="11.50442" cy="163.40708" cx="-55.42479" mask="url(#mask-10)" fill="#000000" fill-opacity="0.116" id="Oval-5-Copy-2"/>
       <ellipse ry="1" rx="9.02655" cy="153.31858" cx="-60.02656" mask="url(#mask-10)" fill="#000000" fill-opacity="0.116" id="Oval-5-Copy-6"/>
      </g>
      <g id="mount-port">
       <polygon points="-155.89129638671875,138.58912658691406 -150.18359375,139.60943603515625 -143.32025146484375,136.98269653320312 -114.91064453125,107.68391418457031 -111.27984619140625,98.43902587890625 -123.8541259765625,102.74407958984375 -136.259033203125,106.47108459472656 -138.52001953125,108.66694641113281 -138.52001953125,120.89663696289062 -142.04998779296875,127.13497924804688 -147.13238525390625,134.79769897460938 -151.18511962890625,132.3031005859375 -153.55780029296875,127.13497924804688 -160.40576171875,123.33248901367188 -158.42144775390625,113.71038818359375 -163.25286865234375,116.50315856933594 -165.29913330078125,120.89663696289062 -163.25286865234375,130.78005981445312 " fill="#E6D79B" id="Path-12"/>
       <polygon points="-150.18359375,139.60943603515625 -143.32025146484375,136.98269653320312 -114.91064453125,107.68391418457031 -111.27984619140625,98.43902587890625 -123.8541259765625,102.74407958984375 -136.259033203125,106.47108459472656 -138.52001953125,108.66694641113281 -138.52001953125,120.89663696289062 -142.04998779296875,127.13497924804688 -147.13238525390625,134.79769897460938 " fill="#B2A87E" id="Path-12-Copy"/>
       <polygon points="-209.826171875,138.54917907714844 -205.5413818359375,122.03277587890625 -203.69879150390625,114.65299987792969 -199.76300048828125,112.94573974609375 -185.252685546875,116.7327880859375 -177.3797607421875,114.65299987792969 -158.56781005859375,118.233154296875 -161.9742431640625,123.87069702148438 -157.546630859375,129.83602905273438 -155.34088134765625,138.54917907714844 -177.3797607421875,138.54917907714844 -192.66717529296875,136.10316467285156 " fill="#CABD88" id="Path-10"/>
       <polygon points="-203.51654052734375,115.06037902832031 -185.03424072265625,118.63435363769531 -169.4505615234375,116.84736633300781 -161.64727783203125,118.63435363769531 -158.32122802734375,118.63435363769531 -158.32122802734375,113.46971130371094 -167.7945556640625,112.51625061035156 -185.03424072265625,110.6761474609375 -197.62158203125,110.6761474609375 -203.51654052734375,112.51625061035156 " fill="#E6D79B" id="Path-11"/>
      </g>
      <g id="mount-well">
       <path fill="#E6D79B" id="Path-15" d="m-10.05735,137.71346l-9.06272,-1.20258l-30.49996,-35.73519l2.95496,-4.83006l2.28685,-3.38351c3.34061,0.71619 5.29453,1.16614 5.86176,1.34986c0.56724,0.18372 1.62814,1.18343 3.18271,2.99913l2.25847,3.12054l5.9013,12.61706l5.4527,12.7587l4.86464,7.84087l6.79929,-4.16058l3.72782,-4.73067l3.71026,-5.46669l2.76011,-4.19119l1.25209,7.45147l-4.0122,13.31879l-7.43808,2.24405z"/>
       <polygon points="-10.057373046875,137.71347045898438 -19.12005615234375,136.5108642578125 -16.85662841796875,133.24827575683594 -10.057373046875,129.0876922607422 -6.32952880859375,124.35702514648438 -2.6192626953125,118.89033508300781 0.14080810546875,114.69914245605469 1.3929443359375,122.15061950683594 -2.6192626953125,135.4694061279297 " fill="#B2A87E" id="Path-15-Copy"/>
       <polygon points="-9.42071533203125,135.83599853515625 -6.50018310546875,128.83843994140625 -2.61090087890625,124.00155639648438 -1.41082763671875,119.45309448242188 4.06854248046875,117.49522399902344 21.84197998046875,122.69845581054688 46.0013427734375,120.86674499511719 55.158203125,126.4095458984375 60.60235595703125,137.8221893310547 60.60235595703125,145.19921875 55.158203125,147.08860778808594 53.805419921875,145.19921875 21.84197998046875,145.19921875 -2.61090087890625,142.70571899414062 -9.42071533203125,137.8221893310547 " fill="#CABD88" id="Path-13"/>
       <g id="Group-11">
        <mask id="mask-12">
         <use id="svg_4" xlink:href="#path-11"/>
        </mask>
        <use x="-1.79646" y="114.20354" xlink:href="#path-11" fill="#E6D79B" id="Path-14"/>
        <path mask="url(#mask-12)" fill="#000000" fill-opacity="0.116" id="Path-77" d="m28.19672,118.53204l-9.51348,4.43796l3.33368,0.81092l12.94338,-3.7942c-2.10525,0.18386 -3.58531,0.18386 -4.44018,0c-0.85486,-0.18387 -1.62933,-0.66876 -2.3234,-1.45468z"/>
       </g>
      </g>
     </g>
     <g id="Group-12">
      <g fill="#696969" id="bucket">
       <path id="Rectangle-11" d="m-45.69026,69.60177l2.12389,0l0,2.16419c-0.49411,0.20912 -0.84809,0.31369 -1.06194,0.31369c-0.21386,0 -0.56784,-0.10457 -1.06195,-0.31369l0,-2.16419z"/>
      </g>
      <g id="house-staris">
       <polygon points="-48.430023193359375,68.35102844238281 -47.460174560546875,65.32598876953125 -50.200225830078125,63.57220458984375 -51.065216064453125,59.24595642089844 -54.848236083984375,57.92034912109375 -81.32504272460938,61.60820007324219 -89.39627075195312,61.60820007324219 -94.55624389648438,65.32598876953125 -98.88858032226562,68.35102844238281 -104.09762573242188,70.57073974609375 -108.34512329101562,74.70562744140625 -103.13107299804688,81.28318786621094 -60.753265380859375,81.28318786621094 " fill="#E6D79B" id="Path-28"/>
       <polygon points="-89.39627075195312,61.60820007324219 -94.55624389648438,65.32598876953125 -98.88858032226562,68.35102844238281 -104.09762573242188,70.57073974609375 -108.34512329101562,74.70562744140625 -103.13107299804688,81.28318786621094 -91.52590942382812,67.36351013183594 " fill="#B2A87E" id="Path-28-Copy"/>
       <polygon points="-42.150482177734375,94.96697998046875 -42.925628662109375,92.62042236328125 -45.188629150390625,89.01225280761719 -46.616241455078125,84.46443176269531 -48.080413818359375,68.36494445800781 -50.451385498046875,65.35397338867188 -57.295867919921875,67.10653686523438 -73.77706909179688,67.10653686523438 -75.37869262695312,68.36494445800781 -80.78598022460938,67.10653686523438 -91.27102661132812,67.10653686523438 -95.56149291992188,70.16615295410156 -97.72567749023438,71.93536376953125 -97.72567749023438,74.63397216796875 -53.305328369140625,97.92034912109375 -43.824615478515625,96.12298583984375 " fill="#CABD88" id="Path-19"/>
      </g>
      <g id="stairs2">
       <g id="stairs">
        <mask id="mask-14">
         <use id="svg_5" xlink:href="#path-13"/>
        </mask>
        <use x="-113.6549" y="72.78761" xlink:href="#path-13" fill="#CABD88" id="Path-16-Copy"/>
        <path mask="url(#mask-14)" fill="#E6D79B" id="Combined-Shape" d="m-101.35595,74.19046l8.20699,-1.58575l0.94704,1.58575l-9.15403,2.30465l0,-2.30465zm2.64365,2.35786l8.25105,-2.06798l0,1.90238l-8.25105,2.45306l0,-2.28746zm2.88089,2.14024l7.7834,-2.29751l-0.1126,1.83981l-7.91295,2.58539l0.24215,-2.12769zm2.45973,2.06101l7.36261,-2.49l0.12616,1.91828l-7.66796,2.85901l0.17919,-2.28729zm3.22196,2.27081l7.48878,-2.86874l-0.33005,1.95055l-7.15873,3.01995l0,-2.10176zm2.54219,2.10342l7.15872,-3.08748l-0.21705,1.51108l-6.94167,3.1878l0,-1.6114zm4.35729,1.60379l6.32509,-3.1281l2.00442,1.62619l-5.80769,3.32727l-2.52182,-1.82536zm5.75064,2.06152l6.23104,-3.59941l1.75916,1.49583l-5.19514,3.64696l-2.79506,-1.54338zm6.01491,1.6411l5.66561,-3.89375l1.60502,1.4793l-4.88453,3.7971l-2.3861,-1.38265zm5.22084,1.10112l4.92656,-3.49756l0,2.18675l-4.61486,4.3044l-0.3117,-2.99359zm6.06233,2.87248l4.06202,-4.19432l2.41252,1.93713l-4.12006,4.69342l-2.35448,-2.43623zm4.11887,2.47336l3.92839,-4.69936l1.65181,1.00398l-3.52903,4.89048l-2.05117,-1.1951zm4.71786,0.96255l3.06786,-4.51221l1.67217,1.44582l-2.89603,4.7578l-1.844,-1.69141z"/>
       </g>
       <polygon points="-116.1365966796875,110.56668090820312 -112.74005126953125,84.64787292480469 -109.96844482421875,82.56694030761719 -108.5230712890625,74.90098571777344 -105.298828125,74.90098571777344 -101.132568359375,74.20353698730469 -101.132568359375,76.11373901367188 -98.564697265625,76.11373901367188 -98.564697265625,78.3201904296875 -95.94970703125,78.3201904296875 -95.94970703125,80.3524169921875 -93.19091796875,80.3524169921875 -93.19091796875,82.56694030761719 -90.18353271484375,82.56694030761719 -90.18353271484375,84.64787292480469 -87.5986328125,84.64787292480469 -87.5986328125,86.2476806640625 -83.34783935546875,86.2476806640625 -80.954833984375,88.04193115234375 -77.04180908203125,88.04193115234375 -74.78948974609375,89.73074340820312 -71.2816162109375,89.73074340820312 -69.264892578125,91.24288940429688 -66.042236328125,91.24288940429688 -66.042236328125,93.82221984863281 -60.39385986328125,93.82221984863281 -57.7213134765625,95.82608032226562 -55.52099609375,95.82608032226562 -53.70343017578125,97.18888854980469 -51.232421875,97.18888854980469 -49.2301025390625,98.69023132324219 -49.2301025390625,100.75221252441406 -37.52606201171875,100.75221252441406 -35.383544921875,102.60209655761719 -33.51593017578125,106.84906005859375 -29.76043701171875,111.49418640136719 -23.34197998046875,128.64251708984375 -18.37347412109375,136.60845947265625 -33.51593017578125,139.2073974609375 -55.52099609375,139.2073974609375 -74.78948974609375,134.1789093017578 " fill="#CABD88" id="Path-16"/>
      </g>
      <g id="stairs1">
       <g id="stairs">
        <mask id="mask-16">
         <use id="svg_6" xlink:href="#path-15"/>
        </mask>
        <use x="-134.53984" y="103.93805" xlink:href="#path-15" fill="#CABD88" id="Path-16-Copy"/>
        <path mask="url(#mask-16)" fill="#E6D79B" id="Combined-Shape" d="m-123.01902,105.63533l8.14119,-1.96746l0,2.31818l-8.14119,2.43761l0,-2.78833zm2.08481,2.85271l7.5128,-2.50199l0,2.30164l-7.5128,2.96789l0,-2.76754zm2.62313,2.58943l7.08699,-2.7797l-0.10252,2.22594l-7.20496,3.12801l0.22049,-2.57425zm2.56195,2.49357l6.70386,-3.01259l0.11487,2.32088l-6.98188,3.45905l0.16315,-2.76734zm2.61138,2.7474l6.81873,-3.47083l-0.30052,2.35993l-6.51821,3.65377l0,-2.54287zm2.31472,2.54487l6.51821,-3.73546l-0.19763,1.82822l-6.32058,3.85684l0,-1.9496zm3.96743,1.9404l5.75917,-3.78462l1.82507,1.96748l-5.28806,4.0256l-2.29618,-2.20846zm5.23611,2.49418l5.67352,-4.35484l1.60177,1.80977l-4.73032,4.41237l-2.54497,-1.8673zm5.47674,1.98553l5.15868,-4.71096l1.46141,1.78977l-4.44749,4.59402l-2.1726,-1.67283zm5.03752,1.63413l4.20195,-4.53353l0,2.64569l-4.20195,5.2078l0,-3.31996zm5.2361,3.17343l3.69857,-5.0746l2.19667,2.34369l-3.75143,5.67845l-2.14381,-2.94754zm4.07265,2.99247l3.5769,-5.68565l1.50402,1.21469l-3.21328,5.91688l-1.86764,-1.44592zm4.29573,1.16456l2.79337,-5.45922l1.52256,1.74927l-2.63691,5.75635l-1.67902,-2.0464z"/>
       </g>
       <polygon points="-143.66510009765625,137.1161346435547 -141.05792236328125,131.4948272705078 -136.28619384765625,120.61495971679688 -137.70233154296875,111.67604064941406 -136.28619384765625,109.81913757324219 -134.376953125,107.86773681640625 -126.68893432617188,106.88531494140625 -122.89083862304688,106.03732299804688 -122.89083862304688,108.35983276367188 -120.54989624023438,108.35983276367188 -120.54989624023438,111.04252624511719 -118.16595458984375,111.04252624511719 -118.16595458984375,113.51338195800781 -115.65093994140625,113.51338195800781 -115.65093994140625,116.20587158203125 -112.90927124023438,116.20587158203125 -112.90927124023438,118.73594665527344 -110.55279541015625,118.73594665527344 -110.55279541015625,120.68104553222656 -106.67755126953125,120.68104553222656 -104.49603271484375,122.86257934570312 -100.92877197265625,122.86257934570312 -98.87545776367188,124.9158935546875 -95.67758178710938,124.9158935546875 -93.83905029296875,126.75442504882812 -90.901123046875,126.75442504882812 -90.901123046875,129.89047241210938 -85.7518310546875,129.89047241210938 -83.31549072265625,132.32684326171875 -81.3095703125,132.32684326171875 -79.652587890625,133.98379516601562 -77.39993286132812,133.98379516601562 -75.57452392578125,135.80918884277344 -75.57452392578125,138.31622314453125 -100.92877197265625,144.572265625 -118.16595458984375,145.93243408203125 -132.38973999023438,142.69557189941406 " fill="#CABD88" id="Path-16"/>
      </g>
      <path fill="#375537" id="trees" d="m-61.61948,176.15044l0,0.79618l-1.06195,0.26576l0,-1.06194l-3.53982,0l0.80562,-2.1239l-0.80562,0l3.08819,-8.14159l-1.31828,0l2.1239,-4.60177l2.12389,4.60177l-1.31828,0l3.08819,8.14159l-0.80561,0l0.80561,2.1239l-3.18584,0zm-155.65819,-27.25664l0.96792,2.47788l-3.8938,0l0,1.12972l-1.06195,0.28621l0,-1.41593l-3.8938,0l0.96792,-2.47788l-0.96792,0l2.62721,-6.72566l-2.62721,0l1.11558,-2.83186l-1.11558,0l3.48619,-8.84956l-1.71628,0l2.47787,-5.66372l2.47788,5.66372l-1.00831,0l3.48619,8.84956l-1.11558,0l1.11558,2.83186l-2.9812,0l2.62721,6.72566l-0.96792,0zm37.72191,6.72566l0.41416,1.06195l-6.0177,0l0,1.67414l-1.76991,0.44975l0,-2.12389l-6.0177,0l1.51858,-3.8938l-1.51858,0l5.38407,-13.80531l-2.19823,0l3.71681,-8.1416l3.71682,8.1416l-2.19823,0l3.64188,9.33815l3.32803,-10.4001l-1.93983,0l3.00885,-8.14159l3.00885,8.14159l-1.58584,0l4.4177,13.80531l-1.24602,0l1.24602,3.8938l-4.95575,0l0,1.67414l-1.41593,0.44976l0,-2.1239l-2.53805,0zm135.63539,6.72567l0,1.42237l-1.41592,0.34754l0,-1.76991l-4.95576,0l1.26617,-3.18584l-1.26617,0l4.22056,-10.61947l-1.74268,0l3.00885,-6.37168l3.00885,6.37168l-1.74268,0l4.22056,10.61947l-1.26617,0l1.18755,2.98804l4.75472,-12.19158l-2.19823,0l3.71682,-8.1416l3.71681,8.1416l-2.19823,0l1.6218,4.15846l2.24869,-5.92837l-1.31828,0l2.1239,-4.60177l2.12389,4.60177l-1.31828,0l3.08819,8.14159l-0.80561,0l0.80561,2.12389l-3.18584,0l0,0.79618l-1.06195,0.26577l0,-1.06195l-1.00885,0l2.0708,5.30974l-1.51858,0l1.51858,3.8938l-6.0177,0l0,1.67414l-1.76991,0.44976l0,-2.1239l-6.0177,0l1.51859,-3.8938l-1.51859,0l0.55221,-1.41593l-4.44602,0zm-157.52212,-21.23894l0,0.79618l-1.06195,0.26577l0,-1.06195l-3.53982,0l0.80562,-2.12389l-0.80562,0l3.08819,-8.1416l-1.31828,0l2.1239,-4.60177l2.12389,4.60177l-1.31828,0l3.08819,8.1416l-0.80561,0l0.80561,2.12389l-3.18584,0zm38.93805,2.47788l0,0.79618l-1.06194,0.26576l0,-1.06194l-3.53983,0l0.80562,-2.1239l-0.80562,0l3.08819,-8.14159l-1.31827,0l2.12389,-4.60177l2.12389,4.60177l-1.31828,0l3.0882,8.14159l-0.80562,0l0.80562,2.1239l-3.18585,0zm111.15045,9.20354l0,0.79618l-1.06195,0.26576l0,-1.06194l-3.53982,0l0.80561,-2.1239l-0.80561,0l3.08819,-8.14159l-1.31828,0l2.12389,-4.60177l2.1239,4.60177l-1.31828,0l3.08819,8.14159l-0.80562,0l0.80562,2.1239l-3.18584,0zm12.38938,-13.09735l0,0.79618l-1.06195,0.26577l0,-1.06195l-3.53982,0l0.80561,-2.12389l-0.80561,0l3.08819,-8.1416l-1.31828,0l2.12389,-4.60177l2.1239,4.60177l-1.31828,0l3.08819,8.1416l-0.80562,0l0.80562,2.12389l-3.18584,0zm67.9646,20.17699l0,0.79618l-1.06195,0.26577l0,-1.06195l-3.53982,0l0.80561,-2.12389l-0.80561,0l3.08819,-8.14159l-1.31828,0l2.1239,-4.60178l2.12389,4.60178l-1.31828,0l3.08819,8.14159l-0.80561,0l0.80561,2.12389l-3.18584,0zm30.79646,-9.20354l0,0.79618l-1.06195,0.26577l0,-1.06195l-3.53982,0l0.80561,-2.12389l-0.80561,0l3.08819,-8.1416l-1.31828,0l2.12389,-4.60176l2.1239,4.60176l-1.31828,0l3.08819,8.1416l-0.80562,0l0.80562,2.12389l-3.18584,0zm-62.61062,2.47788l1.37168,3.53982l-1.09734,0l1.09734,2.83186l-4.60177,0l0,1.40193l-1.41593,0.36798l0,-1.76991l-4.95575,0l1.09735,-2.83186l-1.09735,0l4.38938,-11.32743l-1.9115,0l3.00885,-6.37168l3.00884,6.37168l-1.9115,0l1.15718,2.98626l2.0726,-5.46414l-1.31828,0l2.1239,-4.60177l2.12389,4.60177l-1.31828,0l2.78102,7.33177l2.85939,-7.33177l-2.19823,0l3.71681,-8.14159l3.71682,8.14159l-2.19823,0l2.0747,5.31977l1.66861,-4.25782l-1.54508,0l2.83185,-6.0177l2.83186,6.0177l-1.89906,0l4.02296,10.26549l-1.10979,0l1.10979,2.83185l-4.24779,0l0,1.44282l-1.07497,0.24833l0.72099,1.84868l-6.0177,0l0,1.67413l-1.76992,0.44976l0,-2.12389l-6.01769,0l1.51858,-3.89381l-1.51858,0l1.38053,-3.53982l-1.73452,0l0,0.79618l-1.06194,0.26577l0,-1.06195l-0.66372,0zm4.10589,-2.12389l0.09003,0.23736l0.09258,-0.23736l-0.18261,0zm41.06402,0.70796l-2.73628,0l0,1.06839l-1.41593,0.34754l0,-1.41593l-4.60177,0l1.22532,-3.18584l-1.22532,0l4.08441,-10.61947l-1.60654,0l2.83186,-6.37168l2.83186,6.37168l-1.60653,0l3.02105,7.85475l3.61557,-9.27068l-2.19823,0l3.71682,-8.14159l3.71681,8.14159l-2.19823,0l5.38407,13.80531l-1.51858,0l1.51858,3.89381l-6.0177,0l0,1.67413l-1.76991,0.44976l0,-2.12389l-6.0177,0l0.96637,-2.47788zm-30.66548,5.30973l0.31858,0.81689l0,-0.81689l-0.31858,0zm-221.43974,-6.01769l0,1.40192l-1.25053,0.36799l0,-1.76991l-4.95575,0l1.24325,-3.18585l-1.24325,0l4.42046,-11.32743l-1.94259,0l3.00885,-6.72566l3.00885,6.72566l-1.5886,0l4.42046,11.32743l-1.24325,0l1.24325,3.18585l-5.12115,0zm-16.65308,-2.83186l1.24326,3.18584l-5.12115,0l0,1.40193l-1.25053,0.36798l0,-1.76991l-4.95576,0l1.24326,-3.18584l-1.24326,0l2.0721,-5.30974l-2.90093,0l0.82883,2.12389l-1.24325,0l1.24325,3.18585l-5.12115,0l0,1.40193l-1.25053,0.36798l0,-1.76991l-4.95575,0l1.24325,-3.18585l-1.24325,0l4.42046,-11.32743l-1.94258,0l3.00885,-6.72566l3.00885,6.72566l-1.58861,0l3.47507,8.90487l1.1267,-2.88717l-1.24325,0l4.42046,-11.32743l-1.94259,0l3.00885,-6.72567l3.00885,6.72567l-1.5886,0l4.42046,11.32743l-1.24325,0l1.24325,3.18584l-1.01014,0l2.07209,5.30974l-1.24326,0z"/>
      <path fill="#375537" id="Combined-Shape" d="m-164.62833,113.49557l0,0.85751l-0.70796,0.20444l0,-1.06195l-2.83186,0l0.55406,-1.41593l-0.55406,0l2.63178,-6.72566l-1.21585,0l1.76991,-3.53983l1.76991,3.53983l-1.21585,0l2.63178,6.72566l-0.55406,0l0.55406,1.41593l-2.83186,0z"/>
      <path fill="#375537" id="Combined-Shape" d="m-86.39824,61.81415l0,0.85752l-0.70796,0.20443l0,-1.06195l-2.83186,0l0.55405,-1.41592l-0.55405,0l2.63178,-6.72567l-1.21586,0l1.76992,-3.53982l1.76991,3.53982l-1.21585,0l2.63178,6.72567l-0.55406,0l0.55406,1.41592l-2.83186,0z"/>
      <path fill="#375537" id="Combined-Shape" d="m-89.58408,62.16814l0,0.56486l-0.35398,0.1431l0,-0.70796l-2.1239,0l0.43142,-1.06195l-0.43142,0l1.86947,-4.60177l-0.80752,0l1.23894,-2.47788l1.23893,2.47788l-0.80752,0l1.86947,4.60177l-0.43141,0l0.43141,1.06195l-2.12389,0z"/>
      <g fill-rule="nonzero" fill="#979797" id="well-puller">
       <path id="Path-66" d="m28.27766,113.6739l0.35398,0l0,1.93519c-15.83216,-2.5495 -30.4787,-8.90938 -44.14289,-19.11105c-13.65819,-10.19719 -25.79755,-23.1892 -36.41801,-38.97518l0.2937,-0.19759c10.59879,15.75375 22.7108,28.7165 36.33608,38.88912c13.55945,10.12347 28.08456,16.44924 43.57714,18.97893l0,-1.51942z"/>
       <path id="Path-66-Copy" d="m28.27766,111.90399l0.35398,0l0,1.93519c-15.83216,-2.5495 -30.4787,-8.90939 -44.14289,-19.11105c-13.65819,-10.19719 -25.79755,-23.18921 -36.41801,-38.97518l0.2937,-0.1976c10.59879,15.75376 22.7108,28.71651 36.33608,38.88913c13.55945,10.12347 28.08456,16.44924 43.57714,18.97892l0,-1.51941z"/>
      </g>
      <g id="house">
       <g id="Group-4">
        <polygon points="-84.72381591796875,55.70246887207031 -70.2137451171875,47.91099548339844 -70.2137451171875,62.03825378417969 -81.92919921875,62.45970153808594 " fill="#9A9A9A" id="Path-21"/>
        <polygon points="-57.3953857421875,51.93231201171875 -56.566650390625,47.83766174316406 -50.5050048828125,51.93231201171875 -52.21490478515625,61.60455322265625 -57.3953857421875,61.60455322265625 " fill="#CACACA" id="Path-22"/>
        <g fill-opacity="0.116" fill="#000000" id="Group-10">
         <polygon points="-57.515838623046875,55.291290283203125 -50.618133544921875,52.883880615234375 -57.515838623046875,47.448883056640625 " id="Path-76"/>
        </g>
        <path fill="#965858" id="Path-25" d="m-68.58851,47.09852l-2.40716,-3.8253c-3.64282,3.20716 -6.13654,5.08549 -7.48115,5.63501c-1.34461,0.54951 -3.36059,0.88139 -6.04796,0.99565l-2.10756,6.63067c3.89055,-1.09051 7.01064,-2.15432 9.36026,-3.19142c2.34961,-1.0371 5.24413,-3.11864 8.68357,-6.24461z"/>
        <path fill="#965858" id="Path-26" d="m-56.83324,48.79313c1.12341,1.71905 2.0459,2.79943 2.76747,3.24116c0.72157,0.44173 2.27911,0.87955 4.67261,1.31347l-1.87159,-5.45746c-0.81616,0.19715 -1.74984,-0.10399 -2.80102,-0.9034c-1.05118,-0.79941 -1.97367,-1.90987 -2.76747,-3.33138l0,5.13761z"/>
        <path fill="#D8D8D8" id="Path-20" d="m-70.64703,62.91307c2.2469,1.19508 4.51794,1.79262 6.81312,1.79262c2.29519,0 4.8689,-0.59754 7.72114,-1.79262l0,-21.98825l-8.09951,-8.38867l-7.34276,10.04156l0.90801,20.33536z"/>
        <g fill-opacity="0.116" fill="#000000" id="Group-9">
         <polygon points="-72.002197265625,48.55482482910156 -54.048980712890625,40.4989013671875 -63.681671142578125,30.183807373046875 -73.54132080078125,39.36932373046875 " id="Path-75"/>
        </g>
        <polygon points="-67.52069091796875,60.91839599609375 -65.93951416015625,60.28123474121094 -63.92156982421875,60.28123474121094 -60.48907470703125,61.57225036621094 -59.05535888671875,62.49005126953125 -56.9930419921875,60.91839599609375 -55.2156982421875,60.91839599609375 -55.2156982421875,62.49005126953125 -55.95452880859375,64.26835632324219 -60.48907470703125,65.60232543945312 -65.93951416015625,65.60232543945312 -69.0045166015625,64.26835632324219 -71.13507080078125,63.49613952636719 -73.09136962890625,62.94178771972656 -75.773681640625,63.49613952636719 -74.4859619140625,61.57225036621094 -73.09136962890625,61.57225036621094 -71.686279296875,61.57225036621094 -69.0045166015625,60.91839599609375 -69.0045166015625,61.57225036621094 " fill="#2A5C20" id="Path-49"/>
       </g>
       <g id="Group">
        <polygon points="-74.24801635742188,42.25921630859375 -73.00161743164062,44.677703857421875 -71.09237670898438,42.25921630859375 -64.00900268554688,32.83636474609375 -64.29348754882812,29.74468231201172 -71.09237670898438,38.66600036621094 " fill="#633232" id="Path-24"/>
        <polygon points="-69.76058959960938,83.72311401367188 -71.0069580078125,86.1416015625 -72.91619873046875,83.72311401367188 -79.715087890625,74.58859252929688 -79.715087890625,71.20857238769531 -72.91619873046875,80.1298828125 " transform="rotate(8, 222.216, 158.714)" fill="#633232" id="Path-24-Copy"/>
        <path fill="#965858" id="Path-23" d="m-73.87514,36.27685l-1.18939,7.81479c2.11111,-2.69818 3.99878,-4.8937 5.663,-6.58655c1.66421,-1.69286 3.29812,-3.86363 4.90171,-6.51232l0.41108,-4.38338c-2.30317,2.71734 -4.0741,4.64973 -5.31279,5.79719c-1.2387,1.14745 -2.7299,2.43754 -4.47361,3.87027z"/>
        <path transform="rotate(3, 223.71, 157.293)" fill="#965858" id="Path-23-Copy" d="m-60.51816,50.24117l2.30801,8.20492c-2.92648,-1.95934 -5.22184,-3.78544 -6.88605,-5.47829c-1.66422,-1.69285 -3.29812,-3.86363 -4.90172,-6.51232l0.21485,-4.09951c1.88589,2.52809 3.44818,4.36587 4.68687,5.51332c1.23869,1.14745 2.7647,1.93808 4.57804,2.37188z"/>
        <polygon points="-64.45132446289062,25.707962036132812 -63.743377685546875,25.707962036132812 -63.389373779296875,31.725662231445312 -64.80532836914062,31.725662231445312 " fill="#633232" id="Rectangle-2"/>
       </g>
       <g id="Group-3">
        <circle r="1.23894" cy="42.16814" cx="-63.92035" fill="#3A3A3A" id="Oval"/>
        <circle r="1.23894" cy="55.61947" cx="-53.65487" fill="#3A3A3A" id="Oval-Copy"/>
        <rect height="1.06195" width="8.84956" y="45.53097" x="-68.34513" fill="#633232" id="Rectangle-3"/>
        <rect height="1.06195" width="8.84956" y="53.31858" x="-68.34513" fill="#633232" id="Rectangle-3-Copy"/>
        <rect height="3.18584" width="2.47788" y="48.36283" x="-65.15929" fill="#3A3A3A" id="Rectangle-4"/>
        <rect height="2.83186" width="2.12389" y="55.08849" x="-74.36283" fill="#3A3A3A" id="Rectangle-4-Copy"/>
        <rect height="5.30973" width="3.18584" y="57.21239" x="-80.38053" fill="#3A3A3A" id="Rectangle-5"/>
        <rect height="1.06195" width="4.60177" y="56.50442" x="-81.0885" fill="#633232" id="Rectangle-6"/>
        <polygon points="-77.59805297851562,49.5855712890625 -77.23715209960938,48.617431640625 -77.59805297851562,47.61119079589844 -79.15133666992188,47.07078552246094 -79.62850952148438,47.61119079589844 -78.43283081054688,48.32818603515625 " fill="#B1B1B1" id="Path-27"/>
        <polygon points="-79.67257690429688,47.30088806152344 -78.00619506835938,47.76499938964844 -77.54867553710938,49.77876281738281 -79.67257690429688,49.77876281738281 " fill="#9A9A9A" id="Rectangle-7"/>
       </g>
      </g>
      <g fill="#696969" id="fences">
       <path id="Combined-Shape" d="m-83.23148,65.49069l-0.25266,0.82453l-0.43622,-0.22747l0.12571,-0.92552l-7.1612,0l0.05008,0.36868l-0.43623,0.22747l-1.05382,-3.43911l1.05382,0l0.06595,0.48552l7.65033,1.11373l0.14158,-1.04241l1.05382,0l-0.27599,0.9007l9.55801,0l-0.1526,-0.7593l0.99422,0l0.202,3.18584l-0.55598,0l-0.0854,-0.42496l-10.48542,-0.2877zm0.0949,-0.30971l10.27046,0l-0.10754,-0.53513l-9.87021,-0.42011l-0.29271,0.95524zm-7.90197,-0.62763l7.3266,0l0.00404,-0.02976l-7.48883,-1.13489l0.15819,1.16465z"/>
       <path id="Combined-Shape" d="m-50.8804,60.65108l0.11421,-0.04065l0.09461,-0.28723l-0.194,-1.69859l-0.2418,0.50197l0.22698,1.5245zm-0.29575,0.10528l-0.12301,-1.23167l-0.07643,0.15866l-0.33239,0l0.67467,-2.07068l0.52155,0.27744l-0.17997,0.3736l0.287,1.68554l0.59686,0.31407l-1.19138,2.44643l-0.45842,0l0.13709,-0.4162l-8.25065,3.38851l-0.07634,0.3799l-0.55598,0l0.202,-3.18585l0.99421,0l-0.14455,0.71929l7.97574,-2.83904zm0.03411,0.34158l-8.16865,3.28767l-0.16815,0.83671l8.28209,-3.30472l0.1048,-0.31817l-0.05009,-0.50149z"/>
       <polygon points="-72.48446655273438,63.99237060546875 -59.970184326171875,65.62677001953125 -59.970184326171875,65.07485961914062 -72.48446655273438,63.55609130859375 " id="Path-33"/>
      </g>
      <path transform="rotate(-18, -38.7876, 93.6726) translate(-209.027, -67.9646)" fill="#696969" id="fence2" d="m171.15561,163.01557l0.19986,-0.5936l-2.86078,-3.22601l-0.41114,0.85412l3.07206,2.96549zm-0.17956,0.53333l-3.01539,-3.24352l-0.19151,0.39786l-0.18509,-0.19335l0.81227,-2.41255l0.62718,0l-0.3926,0.81561l3.05412,2.53019l0.18084,-0.53713l1.02793,0l-2.05586,4.27097l-0.30335,-0.31688l0.44146,-1.3112z"/>
      <path transform="rotate(-17, -125.513, 102.345) translate(-122.301, -76.6372)" fill="#696969" id="fences" d="m-4.18811,180.12574l-0.25123,0.80346l-0.43378,-0.22165l0.12501,-0.90187l-7.12091,0l0.0498,0.35926l-0.43378,0.22165l-1.04789,-3.35119l1.04789,0l0.06558,0.47311l7.60729,1.08526l0.14079,-1.01576l1.04789,0l-0.27444,0.87767l9.50424,0l-0.15174,-0.7399l0.98863,0l0.20086,3.10441l-0.55285,0l-0.08492,-0.4141l-10.42644,-0.28035zm0.09437,-0.30178l10.21269,0l-0.10694,-0.52146l-9.81469,-0.40936l-0.29106,0.93082zm-7.85752,-0.6116l7.28538,0l0.00402,-0.02899l-7.4467,-1.10588l0.1573,1.13487z"/>
      <g fill="#696969" id="ladder">
       <g transform="rotate(-11, -15.1018, 104.78) translate(20.1352, 10.8215) scale(-1, 1) translate(-20.1352, -10.8215) translate(1.02012, 4.98083)" id="Group-2-Copy">
        <polygon points="37.36456298828125,106.01585388183594 38.3516845703125,106.01585388183594 38.3516845703125,109.39816284179688 37.58251953125,109.39816284179688 " id="Path-41"/>
        <polygon points="37.06610107421875,105.77835083007812 37.69927978515625,105.77835083007812 37.69927978515625,107.94776916503906 37.2059326171875,107.94776916503906 " id="Path-41-Copy"/>
        <polygon points="74.46905517578125,98.24327087402344 75.05435180664062,101.03277587890625 73.75390625,101.92230224609375 73.6368408203125,98.99822998046875 " id="Path-43"/>
       </g>
       <path fill-rule="nonzero" id="Path-42" d="m-35.60611,100.83959l0.28864,-0.20491c5.51899,7.77397 10.54106,12.60743 15.05515,14.50198c4.5183,1.89632 11.26035,2.37808 20.22138,1.43832l0.03692,0.35206c-9.0149,0.9454 -15.81174,0.45973 -20.39529,-1.46398c-4.58777,-1.92548 -9.65302,-6.8005 -15.2068,-14.62347z"/>
       <path fill-rule="nonzero" id="Path-42-Copy" d="m-34.54417,99.77764l0.28864,-0.20491c5.519,7.77397 10.54107,12.60743 15.05515,14.50198c4.51831,1.89632 11.26036,2.37808 20.22138,1.43833l0.03692,0.35205c-9.01489,0.9454 -15.81173,0.45973 -20.39529,-1.46398c-4.58776,-1.92547 -9.65302,-6.8005 -15.2068,-14.62347z"/>
       <polygon points="-33.16558837890625,104.51174926757812 -32.31451416015625,101.92279052734375 -31.53912353515625,102.86004638671875 -32.078125,105.83090209960938 " id="Path-44"/>
       <polygon points="-30.411376953125,104.28215026855469 -29.7608642578125,104.962158203125 -30.08612060546875,108.22828674316406 -31.129150390625,107.03764343261719 " id="Path-45"/>
       <polygon points="-28.42803955078125,106.5040283203125 -27.88433837890625,107.04702758789062 -28.28118896484375,110.24600219726562 -29.20367431640625,109.19871520996094 " id="Path-46"/>
       <polygon points="-26.51312255859375,108.4443359375 -26.0283203125,108.853759765625 -26.51312255859375,111.84420776367188 -27.4222412109375,110.98857116699219 " id="Path-47"/>
       <polygon points="-24.842529296875,110.00199890136719 -24.1754150390625,110.56642150878906 -24.7093505859375,113.35763549804688 -25.63214111328125,112.65377807617188 " id="Path-48"/>
       <polygon points="-22.9537353515625,111.37167358398438 -22.28668212890625,111.93609619140625 -22.82061767578125,114.727294921875 -23.74334716796875,114.02345275878906 " id="Path-48-Copy"/>
       <polygon points="-20.829833984375,112.78761291503906 -20.16668701171875,113.19384765625 -20.72650146484375,115.79757690429688 -21.61944580078125,115.43937683105469 " id="Path-48-Copy-2"/>
       <polygon points="-18.7059326171875,113.84254455566406 -18.03887939453125,114.05998229980469 -18.7059326171875,116.52232360839844 -19.69879150390625,116.18684387207031 " id="Path-48-Copy-3"/>
       <polygon points="-16.643310546875,114.50465393066406 -15.91497802734375,114.7679443359375 -16.26336669921875,117.17729187011719 -17.3717041015625,116.85531616210938 " id="Path-48-Copy-4"/>
       <polygon points="-14.10418701171875,114.9114990234375 -13.4754638671875,115.03889465332031 -13.84271240234375,117.46047973632812 -14.883056640625,117.33006286621094 " id="Path-48-Copy-5"/>
       <polygon points="-12.04156494140625,115.33529663085938 -11.3211669921875,115.33529663085938 -11.76580810546875,117.69100952148438 -12.7698974609375,117.56327819824219 " id="Path-48-Copy-6"/>
       <polygon points="-9.91766357421875,115.48416137695312 -9.2408447265625,115.48416137695312 -9.56671142578125,117.90080261230469 -10.599365234375,117.75868225097656 " id="Path-48-Copy-7"/>
       <polygon points="-7.79376220703125,115.52836608886719 -7.186767578125,115.52836608886719 -7.365966796875,117.91725158691406 -8.52215576171875,117.91725158691406 " id="Path-48-Copy-8"/>
       <polygon points="-5.821044921875,115.55953979492188 -5.09478759765625,115.55953979492188 -5.09478759765625,117.79766845703125 -6.39825439453125,117.91725158691406 " id="Path-48-Copy-9"/>
       <polygon points="-3.76239013671875,115.45697021484375 -3.1912841796875,115.45697021484375 -3.03082275390625,117.71647644042969 -4.11944580078125,117.84320068359375 " id="Path-48-Copy-10"/>
       <polygon points="-1.71478271484375,115.26548767089844 -1.19207763671875,115.26548767089844 -0.93560791015625,117.49365234375 -2.21734619140625,117.6307373046875 " id="Path-48-Copy-11"/>
       <g id="Group-2">
        <polygon points="-36.010894775390625,98.37309265136719 -35.023773193359375,98.37309265136719 -35.023773193359375,101.75540161132812 -35.792938232421875,101.75540161132812 " id="Path-41"/>
        <polygon points="-34.716827392578125,98.0712890625 -34.083648681640625,98.0712890625 -34.083648681640625,100.24070739746094 -34.576995849609375,100.24070739746094 " id="Path-41-Copy"/>
       </g>
      </g>
      <g fill="#696969" transform="rotate(-22, -127.547, 96.082) translate(100.354, 86.3717) scale(-1, 1) translate(-100.354, -86.3717) translate(89.9115, 76.4602)" id="ladder">
       <polygon points="289.896728515625,94.26329040527344 288.9095764160156,94.26329040527344 288.9095764160156,97.64559936523438 289.6787414550781,97.64559936523438 " transform="rotate(-11, -13.9202, 166.141)" id="Path-41"/>
       <polygon points="289.9894714355469,93.44644165039062 289.35630798339844,93.44644165039062 289.35630798339844,95.61585998535156 289.8496398925781,95.61585998535156 " transform="rotate(-11, -13.4113, 164.839)" id="Path-41-Copy"/>
       <polygon points="269.1176452636719,83.1104736328125 268.5323486328125,85.89999389648438 269.8327941894531,86.78948974609375 269.94989013671875,83.86544799804688 " transform="rotate(-11, -31.091, 152.118)" id="Path-43"/>
       <path fill-rule="nonzero" id="Path-42" d="m248.69738,28.63076l0.28345,-0.21204c3.24354,4.33594 6.08014,7.65704 8.50828,9.96244c2.4155,2.29339 5.82152,4.15864 10.21935,5.59321l-0.10978,0.33653c-4.44447,-1.44979 -7.896,-3.33996 -10.3533,-5.67304c-2.44465,-2.32107 -5.29348,-5.65648 -8.548,-10.0071z"/>
       <path fill-rule="nonzero" id="Path-42-Copy" d="m249.75593,27.56411l0.29024,-0.20263c3.36392,4.81828 6.31425,8.32491 8.84782,10.51846c2.52624,2.1872 5.54964,3.77279 9.07208,4.7569l-0.09525,0.34093c-3.57167,-0.99786 -6.64182,-2.60798 -9.20853,-4.83022c-2.5594,-2.2159 -5.52713,-5.74323 -8.90636,-10.58344z"/>
       <polygon points="251.13531494140625,32.29936218261719 251.98641967773438,29.71039581298828 252.76181030273438,30.64765167236328 252.22280883789062,33.61851501464844 " id="Path-44"/>
       <polygon points="253.8895263671875,32.06976318359375 254.5400390625,32.74977111816406 254.21478271484375,36.015899658203125 253.17172241210938,34.82525634765625 " id="Path-45"/>
       <polygon points="255.87289428710938,34.29164123535156 256.41656494140625,34.83464050292969 256.0197448730469,38.03361511230469 255.09719848632812,36.986328125 " id="Path-46"/>
       <polygon points="257.7878112792969,36.23194885253906 258.2725830078125,36.64137268066406 257.7878112792969,39.63182067871094 256.878662109375,38.77618408203125 " id="Path-47"/>
       <polygon points="259.4584045410156,37.78961181640625 260.1254577636719,38.354034423828125 259.5915222167969,41.14524841308594 258.66876220703125,40.44139099121094 " id="Path-48"/>
       <polygon points="261.34716796875,39.15928649902344 262.0142517089844,39.72370910644531 261.4803161621094,42.51490783691406 260.55755615234375,41.811065673828125 " id="Path-48-Copy"/>
       <polygon points="263.4710693359375,40.575225830078125 264.13421630859375,40.98146057128906 263.5743713378906,43.58518981933594 262.6814270019531,43.22698974609375 " id="Path-48-Copy-2"/>
       <polygon points="265.594970703125,41.630157470703125 266.26202392578125,41.84759521484375 265.594970703125,44.3099365234375 264.6020812988281,43.974456787109375 " id="Path-48-Copy-3"/>
       <g id="Group-2">
        <polygon points="249.915771484375,28.569801330566406 250.90289306640625,28.569801330566406 250.90289306640625,31.952117919921875 250.13375854492188,31.952117919921875 " transform="rotate(22, 249.112, 27.9845) translate(-1.29757, -2.2765)" id="Path-41"/>
        <polygon points="252.32699584960938,27.359756469726562 252.96014404296875,27.359756469726562 252.96014404296875,29.52918243408203 252.46682739257812,29.52918243408203 " transform="rotate(22, 250.229, 27.0762) translate(-2.41469, -1.36825)" id="Path-41-Copy"/>
       </g>
      </g>
      <path transform="rotate(-18, 176.708, 193.371)" fill="#696969" id="fence2" d="m-32.95664,-50.93656l-0.19986,-0.5936l2.86078,-3.22601l0.41114,0.85412l-3.07206,2.96549zm0.17956,0.53333l3.01539,-3.24352l0.19151,0.39786l0.18509,-0.19335l-0.81227,-2.41255l-0.62718,0l0.3926,0.81561l-3.05412,2.53019l-0.18084,-0.53713l-1.02793,0l2.05585,4.27098l0.30336,-0.31689l-0.44146,-1.3112z"/>
      <g fill="#696969" id="port-platform">
       <polygon points="-193.121337890625,101.59945678710938 -174.10360717773438,114.14743041992188 -174.48788452148438,113.05036926269531 -192.0531005859375,101.22184753417969 " id="Path-50"/>
       <polygon points="-192.0379638671875,101.06275939941406 -174.48788452148438,112.89498901367188 -174.76727294921875,111.99888610839844 -191.60025024414062,100.66380310058594 " id="Path-50-Copy"/>
       <polygon points="-177.98773193359375,113.91070556640625 -177.98773193359375,113.13540649414062 -186.47817993164062,110.92941284179688 -186.47817993164062,112.42005920410156 " id="Path-51"/>
       <polygon points="-197.96954345703125,105.86384582519531 -193.38726806640625,105.86384582519531 -193.38726806640625,107.42204284667969 -197.96954345703125,106.6429443359375 " id="Path-52"/>
       <polygon points="-197.86343383789062,110.39842224121094 -197.86343383789062,112.03598022460938 -193.17236328125,111.21719360351562 -193.17236328125,110.39842224121094 " id="Path-53"/>
       <polygon points="-191.654296875,108.44790649414062 -191.654296875,109.8175048828125 -184.38812255859375,109.8175048828125 -184.38812255859375,109.32424926757812 " id="Path-54"/>
       <rect height="17.69911" width="1.06195" y="96.15044" x="-198.25665" id="Rectangle-8"/>
       <rect height="17.69911" width="1.06195" y="96.15044" x="-194.00886" id="Rectangle-8-Copy"/>
       <polygon points="-196.13275146484375,96.53817749023438 -195.4248046875,96.53817749023438 -195.4248046875,112.40843200683594 -196.13275146484375,112.40843200683594 " id="Rectangle-8-Copy-4"/>
       <polygon points="-192.23895263671875,96.53817749023438 -191.53097534179688,96.53817749023438 -191.53097534179688,112.40843200683594 -192.23895263671875,112.40843200683594 " id="Rectangle-8-Copy-5"/>
       <polygon points="-184.80532836914062,103.87484741210938 -184.09735107421875,103.87484741210938 -184.09735107421875,112.76242065429688 -184.80532836914062,112.76242065429688 " id="Rectangle-8-Copy-8"/>
       <polygon points="-176.66372680664062,108.56275939941406 -175.95578002929688,108.56275939941406 -175.95578002929688,113.53358459472656 -176.66372680664062,113.53358459472656 " id="Rectangle-8-Copy-9"/>
       <polygon points="-186.92922973632812,103.88993835449219 -185.86727905273438,103.88993835449219 -185.86727905273438,115.61946105957031 -186.92922973632812,115.61946105957031 " id="Rectangle-8-Copy-6"/>
       <polygon points="-178.43365478515625,107.83184814453125 -177.3717041015625,107.83184814453125 -177.3717041015625,115.97344970703125 -178.43365478515625,115.97344970703125 " id="Rectangle-8-Copy-7"/>
      </g>
      <g id="well">
       <polygon points="29.35400390625,119.48965454101562 29.9678955078125,119.7803955078125 31.1923828125,120.22125244140625 33.12255859375,120.22125244140625 34.639404296875,120.22125244140625 35.3717041015625,119.48965454101562 35.3717041015625,118.80072021484375 35.04083251953125,118.48440551757812 35.04083251953125,118.02401733398438 35.3717041015625,117.53329467773438 35.3717041015625,116.80303955078125 34.82586669921875,116.61068725585938 34.203369140625,116.2144775390625 33.12255859375,115.97344970703125 32.1407470703125,115.97344970703125 30.5775146484375,115.97344970703125 29.7872314453125,116.2144775390625 29.35400390625,116.80303955078125 29.7872314453125,117.53329467773438 29.7872314453125,118.48440551757812 29.35400390625,119.00161743164062 " fill="#9A9A9A" id="Path-61"/>
       <polygon points="30.3621826171875,116.8450927734375 30.06195068359375,116.62796020507812 30.3621826171875,116.32745361328125 31.791015625,116.32745361328125 33.564453125,116.32745361328125 34.2164306640625,116.5596923828125 35.0177001953125,116.8450927734375 34.06097412109375,117.035400390625 32.1123046875,116.8450927734375 " fill="#696969" id="Path-62"/>
       <polygon points="28.79022216796875,119.1593017578125 29.35400390625,111.0177001953125 28.55517578125,111.0177001953125 28.2919921875,119.1593017578125 " fill="#696969" id="Path-63"/>
       <polygon points="35.9354248046875,119.1593017578125 35.3717041015625,111.0177001953125 36.1705322265625,111.0177001953125 36.43359375,119.1593017578125 " fill="#696969" id="Path-63-Copy"/>
       <rect height="1" width="6.72566" y="112.07965" x="28.99999" fill="#696969" id="Rectangle-9"/>
       <polygon points="28.607177734375,110.9483642578125 27.93804931640625,112.43362426757812 28.607177734375,112.43362426757812 30.901123046875,111.2713623046875 32.540283203125,109.45809936523438 33.8553466796875,111.2713623046875 36.78759765625,112.43362426757812 36.13916015625,110.37841796875 32.36279296875,108.53982543945312 " fill="#633232" id="Path-65"/>
       <path fill="#965858" id="Path-64" d="m28.13388,109.27709l-1.25778,2.80256c1.48736,-0.49305 2.61306,-0.97729 3.3771,-1.45271c0.76403,-0.47541 1.64423,-1.23933 2.6406,-2.29176l-0.76226,-1.21128c-1.03896,0.74736 -1.78783,1.24459 -2.24659,1.49168c-0.45877,0.2471 -1.04246,0.4676 -1.75107,0.66151z"/>
       <path fill="#965858" id="Path-64-Copy" d="m36.23779,109.27709l1.25778,2.80256c-1.48736,-0.49305 -2.61306,-0.97729 -3.3771,-1.45271c-0.76403,-0.47541 -1.64423,-1.23933 -2.6406,-2.29176l0.76226,-1.21128c1.03896,0.74736 1.78783,1.24459 2.24659,1.49168c0.45877,0.2471 1.04246,0.4676 1.75107,0.66151z"/>
      </g>
      <g id="Group-7">
       <circle r="1" cy="114.55752" cx="28.64597" stroke="#696969" id="Oval-2"/>
       <g id="Group-6">
        <g id="Group-5"/>
        <g transform="rotate(-90, 28.6459, 114.557) translate(-1.41593, -1.41593) translate(0, 1.06195)" id="Group-5-Copy"/>
        <g transform="rotate(-45, 28.646, 114.558) translate(-1.41593, -1.41593) translate(0, 1.06195)" id="Group-5-Copy-2"/>
        <g transform="rotate(-315, 28.6459, 114.558) translate(-1.41593, -1.41593) translate(0, 1.06195)" id="Group-5-Copy-3"/>
       </g>
      </g>
      <path fill-rule="nonzero" fill="#2A5C20" id="Path-71" d="m-58.61607,60.23456c0.06899,0.72873 0.43422,1.57345 1.09984,2.53089l-0.29064,0.20206c-0.69751,-1.00329 -1.0861,-1.90206 -1.1616,-2.69959c-0.0749,-0.79107 0.11695,-1.93005 0.57225,-3.42486l0.01413,-0.0464l0.03582,-0.03271c0.65395,-0.5973 0.83381,-1.79378 0.5105,-3.599c-0.32604,-1.82051 -0.95664,-3.10175 -1.88453,-3.85056l0.2223,-0.27547c1.00307,0.80948 1.67087,2.16629 2.01067,4.06363c0.33707,1.88207 0.15165,3.18137 -0.58397,3.88879c-0.43311,1.43203 -0.61365,2.51567 -0.54477,3.24322z"/>
      <path stroke="#2A5C20" id="Path-72" d="m-61.49749,62.14924c0.48819,-0.58513 0.73228,-1.09002 0.73228,-1.51466c0,-0.42465 -0.24409,-1.17455 -0.73228,-2.24973"/>
      <path fill-rule="nonzero" fill="#2A5C20" id="Path-73" d="m-70.05776,51.08853c0.08009,0.77623 0.05913,1.37836 -0.04326,2.4655c-0.10544,1.11952 -0.12078,1.51209 -0.0398,2.05607c0.01967,0.13212 0.04562,0.261 0.07837,0.38785c0.24597,0.95254 0.89879,1.88604 1.983,2.81764l2.14424,2.48048l-0.26779,0.23149l-2.12551,-2.46182c-1.11657,-0.95673 -1.81072,-1.94933 -2.07667,-2.97929c-0.0359,-0.13902 -0.06429,-0.28003 -0.08576,-0.42423c-0.08675,-0.58271 -0.07076,-0.99194 0.03749,-2.14138c0.10037,-1.06559 0.12067,-1.6488 0.04358,-2.39598c-0.1371,-1.32879 -0.41856,-2.43967 -0.84282,-3.33262l-0.03084,-0.0649l1.71965,-5.05709l0.33514,0.11397l-1.67356,4.92152c0.42581,0.92058 0.70684,2.04817 0.84454,3.38279z"/>
      <circle r="1" cy="57.38938" cx="-68.16815" fill="#2A5C20" id="Oval-4"/>
      <circle r="1" cy="59.86725" cx="-69.2301" fill="#2A5C20" id="Oval-4-Copy-3"/>
      <circle r="1" cy="57.74336" cx="-58.25665" fill="#2A5C20" id="Oval-4-Copy"/>
      <circle r="1" cy="50.66371" cx="-59.31859" fill="#2A5C20" id="Oval-4-Copy-2"/>
      <path fill="#696969" id="Path-74" d="m-197.89301,101.05225c-0.32751,0.4382 -0.32751,0.68448 0,0.73882c0.32752,0.05434 1.77392,0.3406 4.3392,0.85876c-0.07906,-0.32119 -0.07906,-0.50922 0,-0.56408c0.07221,-0.05011 0.87323,0.32391 1.83231,-0.46168c0.06075,-0.04976 0.06075,-0.39168 0,-1.02575l-4.3115,0l-1.86001,0.45393z"/>
     </g>
    </g>
   </g>
  </g>
 </g>
</svg>